# xmcd CD database file
#
# Track frame offsets:
#	150
#	14015
#	31789
#	46930
#	61219
#	78225
#	86530
#	112927
#	130322
#	149525
#	173248
#
# Disc length: 2538 seconds
#
# Revision: 0
# Processed by: cddbd v1.5.2PL0 Copyright (c) Steve Scherf et al.
# Submitted via: CDex 1.70beta3
#
DISCID=8909e80b
DTITLE=Romano Mussolini - Jazz Allo Studio 7
DYEAR=1963
DGENRE=Jazz
TTITLE0=Yes, Boy
TTITLE1=3/4 Di Gioia
TTITLE2=Nice Day
TTITLE3=Jordu
TTITLE4=San Thomas
TTITLE5=Full Di Dame
TTITLE6=Ella Red Blues
TTITLE7=That's All
TTITLE8=Moanin'
TTITLE9=Autumn Leaves
TTITLE10=Willow Weep For Me
EXTD=YEAR: 1963
EXTT0=
EXTT1=
EXTT2=
EXTT3=
EXTT4=
EXTT5=
EXTT6=
EXTT7=
EXTT8=
EXTT9=
EXTT10=
PLAYORDER=
